<svg width="48" height="48" viewBox="0 0 48 48" fill="none" xmlns="http://www.w3.org/2000/svg">
  <path fill-rule="evenodd" clip-rule="evenodd" d="M17.1113 6.4C17.1113 5.09342 18.1867 4 19.5558 4H28.4447C29.8137 4 30.8891 5.09342 30.8891 6.4V8.79995H17.1113V6.4ZM15.0972 12.8C15.1019 12.8 15.1066 12.8 15.1113 12.8C15.116 12.8 15.1207 12.8 15.1254 12.8H32.875C32.8797 12.8 32.8844 12.8 32.8891 12.8C32.8938 12.8 32.8985 12.8 32.9032 12.8H37.5554V41.6C37.5554 42.9066 36.48 44 35.111 44H12.8888C11.5198 44 10.4443 42.9066 10.4443 41.6V12.8H15.0972ZM13.1113 8.79995V6.4C13.1113 2.84647 16.0156 0 19.5558 0H28.4447C31.9848 0 34.8891 2.84647 34.8891 6.4V8.79995H44C45.1046 8.79995 46 9.69538 46 10.8C46 11.9045 45.1046 12.8 44 12.8H41.5554V41.6C41.5554 45.1536 38.6512 48 35.111 48H12.8888C9.34861 48 6.44434 45.1536 6.44434 41.6V12.8H4C2.89543 12.8 2 11.9045 2 10.8C2 9.69538 2.89543 8.79995 4 8.79995H8.44444H13.1113Z" fill="#EE5253"/>
</svg>
